# AST/ASF file generated using VICON BodyLanguage
# -----------------------------------------------
:version 1.10
:name VICON
:units
  mass 1.0
  length 0.45
  angle deg
:documentation
   .ast/.asf automatically generated from VICON data using
   VICON BodyBuilder and BodyLanguage model FoxedUp or BRILLIANT.MOD
:root
   order TX TY TZ RX RY RZ
   axis XYZ
   position 0 0 0  
   orientation 0 0 0 
:bonedata
  begin
     id 1 
     name lhipjoint
     direction 0.573633 -0.743009 0.344793 
     length 2.46257 
     axis 0 0 0  XYZ
  end
  begin
     id 2 
     name lfemur
     direction 0.34202 -0.939693 0  
     length 7.3842  
     axis 0 0 20  XYZ
    dof rx ry rz
    limits (-160.0 20.0)
           (-70.0 70.0)
           (-60.0 70.0)
  end
  begin
     id 3 
     name ltibia
     direction 0.34202 -0.939693 0   
     length 7.50407   
     axis 0 0 20   XYZ
    dof rx
    limits (-10.0 170.0)
  end
  begin
     id 4 
     name lfoot
     direction 0.110749 -0.304281 0.946123   
     length 1.95925   
     axis -90 7.62852e-016 20   XYZ
    dof rx rz
    limits (-45.0 90.0)
           (-70.0 20.0)
  end
  begin
     id 5 
     name ltoes
     direction 1.53554e-011 -4.21843e-011 1   
     length 0.978318   
     axis -90 7.62852e-016 20   XYZ
    dof rx
    limits (-90.0 20.0)
  end
  begin
     id 6 
     name rhipjoint
     direction -0.488109 -0.791693 0.367385   
     length 2.31113  
     axis 0 0 0  XYZ 
  end
  begin
     id 7 
     name rfemur
     direction -0.34202 -0.939693 0   
     length 7.40965   
     axis 0 0 -20   XYZ
    dof rx ry rz
    limits (-160.0 20.0)
           (-70.0 70.0)
           (-70.0 60.0)
  end
  begin
     id 8 
     name rtibia
     direction -0.34202 -0.939693 0   
     length 7.55548   
     axis 0 0 -20   XYZ
    dof rx
    limits (-10.0 170.0)
 end
 begin
     id 9 
     name rfoot
     direction -0.127594 -0.350561 0.927808   
     length 2.07199  
     axis -90 -7.62852e-016 -20   XYZ
    dof rx rz
    limits (-45.0 90.0)
           (-20.0 70.0)
  end
  begin
     id 10 
     name rtoes
     direction -1.53542e-011 -4.21909e-011 1   
     length 1.02667   
     axis -90 -7.62852e-016 -20   XYZ
    dof rx
    limits (-90.0 20.0)
  end
  begin
     id 11 
     name lowerback
     direction -0.0103342 0.997298 -0.0727278   
     length 2.02836   
     axis 0 0 0   XYZ
    dof rx ry rz
    limits (-20.0 45.0)
           (-30.0 30.0)
           (-30.0 30.0)
  end
  begin
     id 12 
     name upperback
     direction 0.0171146 0.999786 -0.011606   
     length 2.03179   
     axis 0 0 0   XYZ
    dof rx ry rz
    limits (-20.0 45.0)
           (-30.0 30.0)
           (-30.0 30.0)
  end
  begin
     id 13 
     name thorax
     direction 0.0216927 0.999513 0.0224343   
     length 2.03882   
     axis 0 0 0   XYZ
    dof rx ry rz
    limits (-20.0 45.0)
           (-30.0 30.0)
           (-30.0 30.0)
  end
  begin
     id 14 
     name lowerneck
     direction 0.000989287 0.993907 0.110221   
     length 1.75428   
     axis 0 0 0   XYZ
    dof rx ry rz
    limits (-20.0 45.0)
           (-30.0 30.0)
           (-30.0 30.0)
  end
  begin
     id 15 
     name upperneck
     direction -0.0172474 0.994813 -0.100253   
     length 1.77058   
     axis 0 0 0   XYZ
    dof rx ry rz
    limits (-20.0 45.0)
           (-30.0 30.0)
           (-30.0 30.0)
  end
  begin
     id 16
     name head
     direction -0.00486455 0.99894 -0.0457663  
     length 1.77427  
     axis 0 0 0   XYZ
    dof rx ry rz
    limits (-20.0 45.0)
           (-30.0 30.0)
           (-30.0 30.0)
  end
  begin
     id 17 
     name lclavicle
     direction 0.927314 0.333734 -0.169441  
     length 3.97584  
     axis 0 0 0   XYZ
    dof ry rz
    limits (-20.0 10.0)
           (0.0 20.0)
  end
  begin
     id 18 
     name lhumerus
     direction 1 -4.48965e-011 -3.25313e-028   
     length 4.76468   
     axis 180 -30 -90   XYZ
    dof rx ry rz
    limits (-60.0 90.0)
           (-90.0 90.0)
           (-90.0 90.0)
  end
  begin
     id 19
     name lradius
     direction 1 -4.48969e-011 -2.8465e-028   
     length 3.52712   
     axis -180 -30 -90   XYZ
    dof rx
    limits (-10.0 170.0)
  end
  begin
     id 20
     name lwrist
     direction 1 -4.4896e-011 -7.78665e-028   
     length 1.76356   
     axis 1.91374e-015 90 90   XYZ
    dof ry
    limits (-180.0 0.0)
 end
  begin
     id 21 
     name lhand
     direction 1 -4.48959e-011 -1.55733e-027   
     length 0.859564   
     axis 9.9371e-016 90 90   XYZ
    dof rx rz
    limits (-90.0 90.0)
           (-45.0 45.0)
  end
  begin
     id 22 
     name lfingers
     direction 1 -4.48965e-011 -3.11466e-027   
     length 0.693002   
     axis 1.98742e-015 90 90   XYZ
    dof rx
    limits (0.0 90.0)
  end
  begin
     id 23
     name lthumb
     direction 0.707107 -6.34948e-011 0.707107   
     length 0.995017   
     axis -90 45 2.85299e-015   XYZ
    dof rx rz
    limits (-45.0 45.0)
           (-45.0 45.0)
  end
  begin
     id 24 
     name rclavicle
     direction -0.899388 0.348209 -0.264294   
     length 3.68366  
     axis 0 0 0   XYZ 
    dof ry rz
    limits (-10.0 20.0)
           (-20.0 0.0)
  end
  begin
     id 25 
     name rhumerus
     direction -1 -4.48965e-011 -3.01536e-027  
     length 4.90577   
     axis 180 30 90   XYZ
    dof rx ry rz
    limits (-90.0 60.0)
           (-90.0 90.0)
           (-90.0 90.0)
  end
  begin
     id 26 
     name rradius
     direction -1 -4.48966e-011 3.93291e-027   
     length 3.42692   
     axis -180 30 90   XYZ
    dof rx
    limits (-10.0 170.0)
  end
  begin
     id 27 
     name rwrist
     direction -1 -4.48969e-011 -7.78665e-028   
     length 1.71346   
     axis 1.91374e-015 -90 -90   XYZ
    dof ry
    limits (-180.0 0.0)
  end
  begin
     id 28
     name rhand
     direction -1 -4.48967e-011 -1.55733e-027   
     length 0.740957   
     axis 9.9371e-016 -90 -90   XYZ
    dof rx rz
    limits (-90.0 90.0)
           (-45.0 45.0)
  end
  begin
     id 29
     name rfingers
     direction -1 -4.48949e-011 -3.11466e-027   
     length 0.597378   
     axis 1.98742e-015 -90 -90   XYZ
    dof rx
    limits (0.0 90.0)
  end
  begin
     id 30
     name rthumb
     direction -0.707107 -6.34931e-011 0.707107   
     length 0.857719   
     axis -90 -45 -2.85299e-015   XYZ
    dof rx rz
    limits (-45.0 45.0)
           (-45.0 45.0)
  end
:hierarchy
  begin
    root lhipjoint rhipjoint lowerback
    lhipjoint lfemur
    lfemur ltibia
    ltibia lfoot
    lfoot ltoes
    rhipjoint rfemur
    rfemur rtibia
    rtibia rfoot
    rfoot rtoes
    lowerback upperback
    upperback thorax
    thorax lowerneck lclavicle rclavicle
    lowerneck upperneck
    upperneck head
    lclavicle lhumerus
    lhumerus lradius
    lradius lwrist
    lwrist lhand lthumb
    lhand lfingers
    rclavicle rhumerus
    rhumerus rradius
    rradius rwrist
    rwrist rhand rthumb
    rhand rfingers
  end

#!OML:ASF E:\I on waltz\AllaLogoMonkeySwing\Project 1\Capture day 1\Session 1\Subject1.ASF
:FULLY-SPECIFIED
:DEGREES
49
root 1.74863 17.7591 3.34447 8.84611 -0.0548688 -0.654049
lowerback 20.5596 0.683806 -1.34581
upperback 5.84405 0.696385 1.22782
thorax -5.18041 0.340568 1.91219
lowerneck -11.7853 1.1216 -0.227935
upperneck 27.6457 2.21305 -1.99652
head 10.8614 0.746943 -0.400316
rclavicle 6.36111e-015 1.07344e-014
rhumerus -15.6066 4.17913 -88.4351
rradius 41.3714
rwrist -3.35616
rhand -3.22981 -39.1019
rfingers 7.12502
rthumb 22.4934 -67.8118
lclavicle 6.36111e-015 1.07344e-014
lhumerus -23.6332 4.98144 90.8346
lradius 46.8841
lwrist 1.14568
lhand -6.69161 -12.6177
lfingers 7.12502
lthumb 19.1674 16.4578
rfemur -23.795 -3.36709 16.8268
rtibia 29.0245
rfoot -11.555 -10.8713
rtoes 15.6153
lfemur -20.3107 2.80987 -17.1404
ltibia 26.0946
lfoot -15.6143 0.682023
ltoes -28.3714
50
root 1.75046 17.7199 3.1774 9.79659 0.12584 -0.622886
lowerback 22.1329 0.626443 -1.28164
upperback 6.13903 0.627276 1.33149
thorax -5.67056 0.307523 2.00344
lowerneck -12.0697 1.17357 -0.430973
upperneck 27.766 2.37082 -2.10553
head 10.9652 0.780488 -0.383242
rclavicle -9.93923e-017 -1.11319e-014
rhumerus -14.8171 5.85734 -88.0073
rradius 43.6885
rwrist -3.92012
rhand -3.13821 -39.6377
rfingers 7.12502
rthumb 22.5813 -68.3369
lclavicle -9.93923e-017 -1.11319e-014
lhumerus -22.7581 3.55393 91.301
lradius 48.5758
lwrist 0.955423
lhand -6.88184 -12.8712
lfingers 7.12502
lthumb 18.9845 16.2223
rfemur -26.1916 -3.82426 16.8574
rtibia 30.3227
rfoot -11.6517 -10.3551
rtoes 16.9634
lfemur -22.93 3.20138 -17.2699
ltibia 27.7494
lfoot -15.9607 0.10666
ltoes -27.893
51
root 1.75211 17.6678 3.00823 10.9413 0.256749 -0.559855
lowerback 23.2119 0.515864 -1.50299
upperback 6.64907 0.436481 1.50558
thorax -5.65867 0.210485 2.37163
lowerneck -12.5517 1.34683 -0.597349
upperneck 27.6408 2.7141 -2.31321
head 11.0204 0.88943 -0.382258
rclavicle 2.98177e-015 8.15017e-015
rhumerus -13.5162 8.21369 -87.4064
rradius 46.079
rwrist -4.24111
rhand -3.05585 -40.1604
rfingers 7.12502
rthumb 22.6604 -68.8501
lclavicle 2.98177e-015 8.15017e-015
lhumerus -21.6403 2.5054 91.6606
lradius 50.5986
lwrist 0.727151
lhand -7.14246 -13.0547
lfingers 7.12502
lthumb 18.7338 16.0632
rfemur -28.9269 -4.4719 16.9685
rtibia 31.8068
rfoot -11.6912 -9.79783
rtoes 17.302
lfemur -25.8053 3.59252 -17.4591
ltibia 29.4856
lfoot -16.2494 -0.465472
ltoes -27.2613
52
root 1.75551 17.6033 2.84104 12.2867 0.257197 -0.476352
lowerback 24.3183 0.557922 -1.57556
upperback 6.93816 0.462257 1.52096
thorax -5.90187 0.222316 2.42656
lowerneck -12.826 1.37902 -0.719619
upperneck 27.5092 2.75541 -2.20039
head 11.0223 0.907733 -0.312916
rclavicle 2.38542e-015 3.18055e-015
rhumerus -12.558 9.69597 -86.7982
rradius 48.6648
rwrist -3.88338
rhand -3.23378 -40.5761
rfingers 7.12502
rthumb 22.4896 -69.2865
lclavicle 2.38542e-015 3.18055e-015
lhumerus -20.8629 0.833834 91.8485
lradius 52.8268
lwrist 0.426426
lhand -7.51082 -13.5546
lfingers 7.12502
lthumb 18.3795 15.5971
rfemur -32.0061 -5.21348 17.1656
rtibia 33.4773
rfoot -11.6127 -9.17795
rtoes 17.1213
lfemur -28.9379 4.09871 -17.752
ltibia 31.3128
lfoot -16.5113 -1.04079
ltoes -26.8428
53
root 1.76089 17.5292 2.67697 13.6439 0.178994 -0.359894
lowerback 25.5605 0.709457 -1.57999
upperback 7.1528 0.636575 1.47938
thorax -6.29442 0.307437 2.33575
lowerneck -13.1234 1.30475 -0.870103
upperneck 27.3345 2.62919 -1.99434
head 11.0088 0.86031 -0.226673
rclavicle -7.95139e-016 -5.1684e-015
rhumerus -11.7776 10.5454 -86.1198
rradius 51.5176
rwrist -2.89595
rhand -3.48507 -41.1778
rfingers 7.12502
rthumb 22.2484 -69.9172
lclavicle -7.95139e-016 -5.1684e-015
lhumerus -20.1638 -1.36161 91.9894
lradius 55.2004
lwrist 0.256815
lhand -8.09423 -14.1049
lfingers 7.12502
lthumb 17.8182 15.0988
rfemur -35.2048 -5.95178 17.3582
rtibia 35.3108
rfoot -11.6597 -8.42694
rtoes 17.6742
lfemur -32.1473 4.74059 -18.1852
ltibia 33.2762
lfoot -16.9102 -1.61367
ltoes -26.7978
54
root 1.7664 17.4431 2.51464 14.8611 0.0840218 -0.158373
lowerback 26.9778 0.846438 -1.71185
upperback 7.41066 0.755538 1.44688
thorax -6.71417 0.365744 2.34084
lowerneck -13.486 1.26979 -0.990559
upperneck 26.9848 2.58838 -1.93168
head 10.9465 0.839271 -0.186012
rclavicle 1.98785e-015 5.76476e-015
rhumerus -11.0039 11.7906 -85.3268
rradius 54.5202
rwrist -1.77471
rhand -4.0718 -41.7538
rfingers 7.12502
rthumb 21.685 -70.5594
lclavicle 1.98785e-015 5.76476e-015
lhumerus -19.5634 -3.54594 92.0097
lradius 57.918
lwrist -0.152818
lhand -8.93594 -14.568
lfingers 7.12502
lthumb 17.0081 14.7074
rfemur -38.3352 -6.7019 17.4674
rtibia 37.2811
rfoot -11.906 -7.56272
rtoes 18.7509
lfemur -35.2915 5.34912 -18.7429
ltibia 35.4164
lfoot -17.4694 -2.17466
ltoes -26.467
55
root 1.77096 17.3425 2.35408 16.0184 0.0177114 -0.0302404
lowerback 28.4957 0.948695 -1.77332
upperback 7.61502 0.844892 1.4339
thorax -7.22903 0.410537 2.33344
lowerneck -13.4022 1.25516 -0.7482
upperneck 26.1786 2.60944 -2.40235
head 10.6407 0.829897 -0.393465
rclavicle 2.18663e-015 9.14409e-015
rhumerus -10.4881 13.4809 -84.4347
rradius 57.6779
rwrist -0.773282
rhand -5.40013 -42.0938
rfingers 7.12502
rthumb 20.4089 -71.0413
lclavicle 2.18663e-015 9.14409e-015
lhumerus -19.227 -5.639 91.9403
lradius 60.8704
lwrist -1.23314
lhand -10.2716 -15.0452
lfingers 7.12502
lthumb 15.7221 14.3361
rfemur -41.4738 -7.45461 17.7202
rtibia 39.3731
rfoot -12.1623 -6.6577
rtoes 19.6927
lfemur -38.498 5.90829 -19.2287
ltibia 37.7508
lfoot -18.0851 -2.7606
ltoes -25.5875
56
root 1.7754 17.2228 2.19864 17.3199 0.00732673 -0.119585
lowerback 29.7907 1.01001 -1.58058
upperback 7.7206 0.959498 1.45302
thorax -7.73596 0.465142 2.20336
lowerneck -13.2327 1.23908 -0.600257
upperneck 25.4382 2.61904 -2.76362
head 10.3434 0.819585 -0.545156
rclavicle 3.57812e-015 1.59028e-014
rhumerus -10.3424 15.3366 -83.4228
rradius 61.0289
rwrist 0.431452
rhand -6.83114 -42.1735
rfingers 7.12502
rthumb 19.0332 -71.2622
lclavicle 3.57812e-015 1.59028e-014
lhumerus -19.0637 -7.82208 91.8481
lradius 63.7699
lwrist -2.69483
lhand -11.9463 -15.2994
lfingers 7.12502
lthumb 14.1087 14.2016
rfemur -44.8582 -8.1767 18.3101
rtibia 41.595
rfoot -12.3825 -5.7841
rtoes 19.7874
lfemur -42.0249 6.48013 -19.5435
ltibia 40.2806
lfoot -18.6163 -3.30528
ltoes -24.9518
57
root 1.78023 17.0813 2.05389 18.7397 0.0751562 -0.252756
lowerback 30.635 1.02002 -1.41412
upperback 7.95451 1.01522 1.51704
thorax -7.87294 0.487076 2.15811
lowerneck -13.4502 1.22462 -0.601806
upperneck 24.7137 2.64055 -3.00674
head 10.1272 0.810434 -0.624353
rclavicle -4.77083e-015 -1.09332e-014
rhumerus -10.0981 17.3082 -82.2512
rradius 64.3503
rwrist 2.14267
rhand -7.98037 -41.6409
rfingers 7.12502
rthumb 17.9277 -70.8346
lclavicle -4.77083e-015 -1.09332e-014
lhumerus -18.7549 -9.98731 91.6349
lradius 66.6692
lwrist -4.23351
lhand -13.817 -15.9926
lfingers 7.12502
lthumb 12.3056 13.6253
rfemur -48.4755 -8.90252 19.0024
rtibia 44.0223
rfoot -12.7314 -4.92423
rtoes 19.2726
lfemur -45.8028 6.97683 -19.8627
ltibia 43.0236
lfoot -19.168 -3.75379
ltoes -24.6993
58
root 1.78522 16.9269 1.92149 19.9519 0.27314 -0.356034
lowerback 31.4226 0.954607 -1.28259
upperback 8.32991 0.972475 1.61291
thorax -7.81213 0.46055 2.20497
lowerneck -13.7681 1.25503 -0.657453
upperneck 23.8839 2.70587 -3.14625
head 9.89317 0.829121 -0.651064
rclavicle -6.95746e-015 -1.39149e-014
rhumerus -9.84452 19.2318 -81.0239
rradius 67.6486
rwrist 4.32513
rhand -8.6745 -40.9326
rfingers 7.12502
rthumb 17.2597 -70.1861
lclavicle -6.95746e-015 -1.39149e-014
lhumerus -18.4389 -11.9823 91.2842
lradius 69.6332
lwrist -5.77053
lhand -15.7031 -17.6127
lfingers 7.12502
lthumb 10.4866 12.1057
rfemur -51.91 -9.75689 19.7412
rtibia 46.6148
rfoot -13.1207 -4.11881
rtoes 20.0426
lfemur -49.3707 7.43138 -20.2199
ltibia 45.8867
lfoot -19.8968 -4.26611
ltoes -24.3419
59
root 1.78725 16.7479 1.80413 20.7966 0.506973 -0.312927
lowerback 32.8774 0.875676 -1.19341
upperback 8.27555 0.886773 1.72803
thorax -7.79676 0.40201 2.1405
lowerneck -14.0594 1.32233 -0.609457
upperneck 23.1302 2.80563 -3.31708
head 9.68598 0.869085 -0.702131
rclavicle -5.76476e-015 -1.23246e-014
rhumerus -9.88734 20.9861 -79.8694
rradius 71.0024
rwrist 6.60486
rhand -8.55166 -40.6495
rfingers 7.12502
rthumb 17.378 -69.8927
lclavicle -5.76476e-015 -1.23246e-014
lhumerus -18.3407 -13.8876 90.8779
lradius 72.6081
lwrist -7.10024
lhand -17.1872 -19.1971
lfingers 7.12502
lthumb 9.05467 10.5886
rfemur -55.045 -10.7347 20.4039
rtibia 49.4358
rfoot -13.8668 -3.40424
rtoes 18.6929
lfemur -52.5559 7.91872 -20.7314
ltibia 48.8702
lfoot -20.7802 -4.9064
ltoes -23.7943
